<mxfile host="65bd71144e">
    <diagram id="VbZlhddtmWWC4KqhwTg3" name="Page-1">
        <mxGraphModel dx="1094" dy="572" grid="1" gridSize="10" guides="1" tooltips="1" connect="1" arrows="1" fold="1" page="1" pageScale="1" pageWidth="850" pageHeight="1100" math="0" shadow="0">
            <root>
                <mxCell id="0"/>
                <mxCell id="1" parent="0"/>
                <mxCell id="2" value="P.6.1&lt;div&gt;Tampil Data&lt;/div&gt;&lt;div&gt;Reservasi&lt;/div&gt;" style="shape=ellipse;html=1;dashed=0;whiteSpace=wrap;aspect=fixed;perimeter=ellipsePerimeter;" vertex="1" parent="1">
                    <mxGeometry x="260" y="280" width="100" height="100" as="geometry"/>
                </mxCell>
                <mxCell id="4" value="P.6.2&lt;div&gt;Lihat Data&lt;/div&gt;&lt;div&gt;Reservasi&lt;/div&gt;" style="shape=ellipse;html=1;dashed=0;whiteSpace=wrap;aspect=fixed;perimeter=ellipsePerimeter;" vertex="1" parent="1">
                    <mxGeometry x="490" y="140" width="100" height="100" as="geometry"/>
                </mxCell>
                <mxCell id="5" value="P.6.3&lt;div&gt;Ubah Status&lt;/div&gt;&lt;div&gt;Reservasi&lt;/div&gt;" style="shape=ellipse;html=1;dashed=0;whiteSpace=wrap;aspect=fixed;perimeter=ellipsePerimeter;" vertex="1" parent="1">
                    <mxGeometry x="490" y="280" width="100" height="100" as="geometry"/>
                </mxCell>
                <mxCell id="6" value="P.6.4&lt;div&gt;Proses&lt;br&gt;&lt;div&gt;Reservasi&lt;/div&gt;&lt;/div&gt;" style="shape=ellipse;html=1;dashed=0;whiteSpace=wrap;aspect=fixed;perimeter=ellipsePerimeter;" vertex="1" parent="1">
                    <mxGeometry x="490" y="420" width="100" height="100" as="geometry"/>
                </mxCell>
                <mxCell id="7" value="Hotel&lt;div&gt;Organizer&lt;/div&gt;" style="html=1;dashed=0;whiteSpace=wrap;" vertex="1" parent="1">
                    <mxGeometry x="60" y="305" width="100" height="50" as="geometry"/>
                </mxCell>
                <mxCell id="8" value="" style="endArrow=classic;html=1;rounded=0;curved=0;jumpStyle=arc;exitX=0.701;exitY=0.04;exitDx=0;exitDy=0;exitPerimeter=0;entryX=0.037;entryY=0.309;entryDx=0;entryDy=0;entryPerimeter=0;" edge="1" parent="1" source="2" target="4">
                    <mxGeometry width="50" height="50" relative="1" as="geometry">
                        <mxPoint x="370" y="440" as="sourcePoint"/>
                        <mxPoint x="420" y="390" as="targetPoint"/>
                        <Array as="points">
                            <mxPoint x="330" y="170"/>
                        </Array>
                    </mxGeometry>
                </mxCell>
                <mxCell id="46" value="Data reservasi" style="edgeLabel;html=1;align=center;verticalAlign=middle;resizable=0;points=[];" vertex="1" connectable="0" parent="8">
                    <mxGeometry x="0.2691" y="1" relative="1" as="geometry">
                        <mxPoint x="18" as="offset"/>
                    </mxGeometry>
                </mxCell>
                <mxCell id="9" value="" style="endArrow=classic;html=1;rounded=0;curved=0;jumpStyle=arc;exitX=0.987;exitY=0.343;exitDx=0;exitDy=0;exitPerimeter=0;entryX=0;entryY=0.5;entryDx=0;entryDy=0;" edge="1" parent="1" source="6" target="54">
                    <mxGeometry width="50" height="50" relative="1" as="geometry">
                        <mxPoint x="700" y="575" as="sourcePoint"/>
                        <mxPoint x="750" y="525" as="targetPoint"/>
                        <Array as="points">
                            <mxPoint x="630" y="454"/>
                            <mxPoint x="630" y="355"/>
                        </Array>
                    </mxGeometry>
                </mxCell>
                <mxCell id="65" value="&lt;span style=&quot;scrollbar-color: rgb(226, 226, 226) rgb(251, 251, 251); color: rgb(0, 0, 0);&quot;&gt;Data&amp;nbsp;&lt;/span&gt;&lt;div style=&quot;scrollbar-color: rgb(226, 226, 226) rgb(251, 251, 251); color: rgb(63, 63, 63);&quot;&gt;pelanggan&lt;/div&gt;" style="edgeLabel;html=1;align=center;verticalAlign=middle;resizable=0;points=[];" vertex="1" connectable="0" parent="9">
                    <mxGeometry x="-0.2444" y="-2" relative="1" as="geometry">
                        <mxPoint as="offset"/>
                    </mxGeometry>
                </mxCell>
                <mxCell id="10" value="" style="endArrow=classic;html=1;rounded=0;curved=0;jumpStyle=arc;exitX=0;exitY=0.5;exitDx=0;exitDy=0;entryX=1;entryY=0;entryDx=0;entryDy=0;" edge="1" parent="1" source="4" target="2">
                    <mxGeometry width="50" height="50" relative="1" as="geometry">
                        <mxPoint x="180" y="550" as="sourcePoint"/>
                        <mxPoint x="230" y="500" as="targetPoint"/>
                        <Array as="points">
                            <mxPoint x="450" y="190"/>
                            <mxPoint x="345" y="190"/>
                        </Array>
                    </mxGeometry>
                </mxCell>
                <mxCell id="45" value="Info reservasi" style="edgeLabel;html=1;align=center;verticalAlign=middle;resizable=0;points=[];" vertex="1" connectable="0" parent="10">
                    <mxGeometry x="-0.2547" y="-1" relative="1" as="geometry">
                        <mxPoint x="13" y="1" as="offset"/>
                    </mxGeometry>
                </mxCell>
                <mxCell id="11" value="" style="endArrow=classic;html=1;rounded=0;curved=0;jumpStyle=arc;exitX=1;exitY=0;exitDx=0;exitDy=0;entryX=0;entryY=1;entryDx=0;entryDy=0;" edge="1" parent="1" source="6" target="53">
                    <mxGeometry width="50" height="50" relative="1" as="geometry">
                        <mxPoint x="710" y="560" as="sourcePoint"/>
                        <mxPoint x="760" y="510" as="targetPoint"/>
                        <Array as="points">
                            <mxPoint x="600" y="435"/>
                            <mxPoint x="600" y="280"/>
                        </Array>
                    </mxGeometry>
                </mxCell>
                <mxCell id="64" value="&lt;span style=&quot;scrollbar-color: rgb(226, 226, 226) rgb(251, 251, 251); color: rgb(0, 0, 0);&quot;&gt;Data&amp;nbsp;&lt;/span&gt;&lt;div style=&quot;color: rgb(63, 63, 63); scrollbar-color: rgb(226, 226, 226) rgb(251, 251, 251);&quot;&gt;&lt;span style=&quot;scrollbar-color: rgb(226, 226, 226) rgb(251, 251, 251); color: rgb(0, 0, 0);&quot;&gt;reservasi&lt;/span&gt;&lt;/div&gt;" style="edgeLabel;html=1;align=center;verticalAlign=middle;resizable=0;points=[];" vertex="1" connectable="0" parent="11">
                    <mxGeometry x="-0.4962" y="2" relative="1" as="geometry">
                        <mxPoint as="offset"/>
                    </mxGeometry>
                </mxCell>
                <mxCell id="12" value="" style="endArrow=classic;html=1;rounded=0;curved=0;jumpStyle=arc;" edge="1" parent="1">
                    <mxGeometry width="50" height="50" relative="1" as="geometry">
                        <mxPoint x="150" y="650" as="sourcePoint"/>
                        <mxPoint x="200" y="600" as="targetPoint"/>
                    </mxGeometry>
                </mxCell>
                <mxCell id="13" value="" style="endArrow=classic;html=1;rounded=0;curved=0;jumpStyle=arc;entryX=1;entryY=0.75;entryDx=0;entryDy=0;exitX=0.019;exitY=0.628;exitDx=0;exitDy=0;exitPerimeter=0;" edge="1" parent="1" source="2" target="7">
                    <mxGeometry width="50" height="50" relative="1" as="geometry">
                        <mxPoint x="130" y="630" as="sourcePoint"/>
                        <mxPoint x="180" y="580" as="targetPoint"/>
                    </mxGeometry>
                </mxCell>
                <mxCell id="44" value="Info reservasi" style="edgeLabel;html=1;align=center;verticalAlign=middle;resizable=0;points=[];" vertex="1" connectable="0" parent="13">
                    <mxGeometry x="-0.1054" relative="1" as="geometry">
                        <mxPoint x="-6" as="offset"/>
                    </mxGeometry>
                </mxCell>
                <mxCell id="14" value="" style="endArrow=classic;html=1;rounded=0;curved=0;jumpStyle=arc;entryX=0.5;entryY=1;entryDx=0;entryDy=0;exitX=0;exitY=0.5;exitDx=0;exitDy=0;" edge="1" parent="1" source="50" target="47">
                    <mxGeometry width="50" height="50" relative="1" as="geometry">
                        <mxPoint x="340" y="650" as="sourcePoint"/>
                        <mxPoint x="390" y="600" as="targetPoint"/>
                        <Array as="points">
                            <mxPoint x="310" y="600"/>
                        </Array>
                    </mxGeometry>
                </mxCell>
                <mxCell id="52" value="Info reservasi" style="edgeLabel;html=1;align=center;verticalAlign=middle;resizable=0;points=[];" vertex="1" connectable="0" parent="14">
                    <mxGeometry x="-0.2677" y="-1" relative="1" as="geometry">
                        <mxPoint x="36" y="1" as="offset"/>
                    </mxGeometry>
                </mxCell>
                <mxCell id="15" value="" style="endArrow=classic;html=1;rounded=0;curved=0;jumpStyle=arc;exitX=1;exitY=1;exitDx=0;exitDy=0;entryX=1;entryY=0.5;entryDx=0;entryDy=0;" edge="1" parent="1" source="54" target="50">
                    <mxGeometry width="50" height="50" relative="1" as="geometry">
                        <mxPoint x="1040" y="495" as="sourcePoint"/>
                        <mxPoint x="1090" y="445" as="targetPoint"/>
                        <Array as="points">
                            <mxPoint x="870" y="370"/>
                            <mxPoint x="870" y="600"/>
                        </Array>
                    </mxGeometry>
                </mxCell>
                <mxCell id="68" value="&lt;span style=&quot;scrollbar-color: rgb(226, 226, 226) rgb(251, 251, 251); color: rgb(0, 0, 0);&quot;&gt;Data&amp;nbsp;&lt;/span&gt;&lt;span style=&quot;color: rgb(63, 63, 63); background-color: light-dark(#ffffff, var(--ge-dark-color, #121212));&quot;&gt;pelanggan&lt;/span&gt;" style="edgeLabel;html=1;align=center;verticalAlign=middle;resizable=0;points=[];" vertex="1" connectable="0" parent="15">
                    <mxGeometry x="0.5455" y="1" relative="1" as="geometry">
                        <mxPoint y="-1" as="offset"/>
                    </mxGeometry>
                </mxCell>
                <mxCell id="16" value="" style="endArrow=classic;html=1;rounded=0;curved=0;jumpStyle=arc;" edge="1" parent="1">
                    <mxGeometry width="50" height="50" relative="1" as="geometry">
                        <mxPoint x="160" y="660" as="sourcePoint"/>
                        <mxPoint x="210" y="610" as="targetPoint"/>
                    </mxGeometry>
                </mxCell>
                <mxCell id="17" value="" style="endArrow=classic;html=1;rounded=0;curved=0;jumpStyle=arc;exitX=1;exitY=0.5;exitDx=0;exitDy=0;entryX=0;entryY=0.5;entryDx=0;entryDy=0;" edge="1" parent="1" source="47" target="6">
                    <mxGeometry width="50" height="50" relative="1" as="geometry">
                        <mxPoint x="375" y="580" as="sourcePoint"/>
                        <mxPoint x="425" y="530" as="targetPoint"/>
                    </mxGeometry>
                </mxCell>
                <mxCell id="51" value="Data reservasi" style="edgeLabel;html=1;align=center;verticalAlign=middle;resizable=0;points=[];" vertex="1" connectable="0" parent="17">
                    <mxGeometry x="-0.1593" y="1" relative="1" as="geometry">
                        <mxPoint x="7" as="offset"/>
                    </mxGeometry>
                </mxCell>
                <mxCell id="18" value="" style="endArrow=classic;html=1;rounded=0;curved=0;jumpStyle=arc;exitX=1;exitY=0.5;exitDx=0;exitDy=0;entryX=0.991;entryY=0.694;entryDx=0;entryDy=0;entryPerimeter=0;" edge="1" parent="1" source="53" target="50">
                    <mxGeometry width="50" height="50" relative="1" as="geometry">
                        <mxPoint x="1030" y="625" as="sourcePoint"/>
                        <mxPoint x="1080" y="575" as="targetPoint"/>
                        <Array as="points">
                            <mxPoint x="880" y="265"/>
                            <mxPoint x="880" y="619"/>
                        </Array>
                    </mxGeometry>
                </mxCell>
                <mxCell id="69" value="&lt;span style=&quot;scrollbar-color: rgb(226, 226, 226) rgb(251, 251, 251); color: rgb(0, 0, 0);&quot;&gt;Data&amp;nbsp;&lt;/span&gt;&lt;span style=&quot;color: rgb(63, 63, 63); background-color: light-dark(#ffffff, var(--ge-dark-color, #121212));&quot;&gt;reservasi&lt;/span&gt;" style="edgeLabel;html=1;align=center;verticalAlign=middle;resizable=0;points=[];" vertex="1" connectable="0" parent="18">
                    <mxGeometry x="0.6445" relative="1" as="geometry">
                        <mxPoint as="offset"/>
                    </mxGeometry>
                </mxCell>
                <mxCell id="19" value="" style="endArrow=classic;html=1;rounded=0;curved=0;jumpStyle=arc;" edge="1" parent="1">
                    <mxGeometry width="50" height="50" relative="1" as="geometry">
                        <mxPoint x="160" y="660" as="sourcePoint"/>
                        <mxPoint x="210" y="610" as="targetPoint"/>
                    </mxGeometry>
                </mxCell>
                <mxCell id="20" value="" style="endArrow=classic;html=1;rounded=0;curved=0;jumpStyle=arc;" edge="1" parent="1">
                    <mxGeometry width="50" height="50" relative="1" as="geometry">
                        <mxPoint x="170" y="670" as="sourcePoint"/>
                        <mxPoint x="220" y="620" as="targetPoint"/>
                    </mxGeometry>
                </mxCell>
                <mxCell id="21" value="" style="endArrow=classic;html=1;rounded=0;curved=0;jumpStyle=arc;exitX=0.966;exitY=0.329;exitDx=0;exitDy=0;exitPerimeter=0;entryX=0.023;entryY=0.335;entryDx=0;entryDy=0;entryPerimeter=0;" edge="1" parent="1" source="2" target="5">
                    <mxGeometry width="50" height="50" relative="1" as="geometry">
                        <mxPoint x="360" y="313" as="sourcePoint"/>
                        <mxPoint x="490" y="313" as="targetPoint"/>
                    </mxGeometry>
                </mxCell>
                <mxCell id="48" value="Data reservasi" style="edgeLabel;html=1;align=center;verticalAlign=middle;resizable=0;points=[];" vertex="1" connectable="0" parent="21">
                    <mxGeometry x="-0.3497" y="3" relative="1" as="geometry">
                        <mxPoint x="24" y="2" as="offset"/>
                    </mxGeometry>
                </mxCell>
                <mxCell id="22" value="" style="endArrow=classic;html=1;rounded=0;curved=0;jumpStyle=arc;exitX=1;exitY=0.5;exitDx=0;exitDy=0;entryX=0;entryY=0.5;entryDx=0;entryDy=0;" edge="1" parent="1" source="6" target="55">
                    <mxGeometry width="50" height="50" relative="1" as="geometry">
                        <mxPoint x="710" y="590" as="sourcePoint"/>
                        <mxPoint x="760" y="540" as="targetPoint"/>
                    </mxGeometry>
                </mxCell>
                <mxCell id="66" value="Data&lt;div&gt;reservasi kamar&lt;/div&gt;" style="edgeLabel;html=1;align=center;verticalAlign=middle;resizable=0;points=[];" vertex="1" connectable="0" parent="22">
                    <mxGeometry x="-0.2484" y="1" relative="1" as="geometry">
                        <mxPoint x="9" y="1" as="offset"/>
                    </mxGeometry>
                </mxCell>
                <mxCell id="23" value="" style="endArrow=classic;html=1;rounded=0;curved=0;jumpStyle=arc;" edge="1" parent="1">
                    <mxGeometry width="50" height="50" relative="1" as="geometry">
                        <mxPoint x="160" y="660" as="sourcePoint"/>
                        <mxPoint x="210" y="610" as="targetPoint"/>
                    </mxGeometry>
                </mxCell>
                <mxCell id="24" value="" style="endArrow=classic;html=1;rounded=0;curved=0;jumpStyle=arc;" edge="1" parent="1">
                    <mxGeometry width="50" height="50" relative="1" as="geometry">
                        <mxPoint x="170" y="670" as="sourcePoint"/>
                        <mxPoint x="220" y="620" as="targetPoint"/>
                    </mxGeometry>
                </mxCell>
                <mxCell id="25" value="" style="endArrow=classic;html=1;rounded=0;curved=0;jumpStyle=arc;" edge="1" parent="1">
                    <mxGeometry width="50" height="50" relative="1" as="geometry">
                        <mxPoint x="180" y="680" as="sourcePoint"/>
                        <mxPoint x="230" y="630" as="targetPoint"/>
                    </mxGeometry>
                </mxCell>
                <mxCell id="26" value="" style="endArrow=classic;html=1;rounded=0;curved=0;jumpStyle=arc;exitX=1;exitY=0.25;exitDx=0;exitDy=0;entryX=0.023;entryY=0.379;entryDx=0;entryDy=0;entryPerimeter=0;" edge="1" parent="1" source="7" target="2">
                    <mxGeometry width="50" height="50" relative="1" as="geometry">
                        <mxPoint x="180" y="400" as="sourcePoint"/>
                        <mxPoint x="230" y="350" as="targetPoint"/>
                    </mxGeometry>
                </mxCell>
                <mxCell id="43" value="Data reservasi" style="edgeLabel;html=1;align=center;verticalAlign=middle;resizable=0;points=[];" vertex="1" connectable="0" parent="26">
                    <mxGeometry x="-0.3056" y="1" relative="1" as="geometry">
                        <mxPoint x="14" as="offset"/>
                    </mxGeometry>
                </mxCell>
                <mxCell id="27" value="" style="endArrow=classic;html=1;rounded=0;curved=0;jumpStyle=arc;exitX=1;exitY=0.75;exitDx=0;exitDy=0;entryX=0.5;entryY=0;entryDx=0;entryDy=0;" edge="1" parent="1" source="54" target="4">
                    <mxGeometry width="50" height="50" relative="1" as="geometry">
                        <mxPoint x="790" y="430" as="sourcePoint"/>
                        <mxPoint x="560" y="140" as="targetPoint"/>
                        <Array as="points">
                            <mxPoint x="830" y="363"/>
                            <mxPoint x="830" y="140"/>
                        </Array>
                    </mxGeometry>
                </mxCell>
                <mxCell id="58" value="Data &lt;i&gt;reservation customer&lt;/i&gt;" style="edgeLabel;html=1;align=center;verticalAlign=middle;resizable=0;points=[];" vertex="1" connectable="0" parent="27">
                    <mxGeometry x="0.4792" relative="1" as="geometry">
                        <mxPoint x="36" as="offset"/>
                    </mxGeometry>
                </mxCell>
                <mxCell id="28" value="" style="endArrow=classic;html=1;rounded=0;curved=0;jumpStyle=arc;" edge="1" parent="1">
                    <mxGeometry width="50" height="50" relative="1" as="geometry">
                        <mxPoint x="160" y="660" as="sourcePoint"/>
                        <mxPoint x="210" y="610" as="targetPoint"/>
                    </mxGeometry>
                </mxCell>
                <mxCell id="29" value="" style="endArrow=classic;html=1;rounded=0;curved=0;jumpStyle=arc;" edge="1" parent="1">
                    <mxGeometry width="50" height="50" relative="1" as="geometry">
                        <mxPoint x="170" y="670" as="sourcePoint"/>
                        <mxPoint x="220" y="620" as="targetPoint"/>
                    </mxGeometry>
                </mxCell>
                <mxCell id="30" value="" style="endArrow=classic;html=1;rounded=0;curved=0;jumpStyle=arc;entryX=0.995;entryY=0.606;entryDx=0;entryDy=0;entryPerimeter=0;exitX=0.001;exitY=0.635;exitDx=0;exitDy=0;exitPerimeter=0;" edge="1" parent="1" source="53" target="5">
                    <mxGeometry width="50" height="50" relative="1" as="geometry">
                        <mxPoint x="670" y="320" as="sourcePoint"/>
                        <mxPoint x="640" y="380" as="targetPoint"/>
                        <Array as="points">
                            <mxPoint x="620" y="270"/>
                            <mxPoint x="620" y="340"/>
                        </Array>
                    </mxGeometry>
                </mxCell>
                <mxCell id="63" value="&lt;span style=&quot;color: rgb(0, 0, 0);&quot;&gt;Data&amp;nbsp;&lt;/span&gt;&lt;div&gt;&lt;span style=&quot;color: rgb(0, 0, 0);&quot;&gt;reservasi&lt;/span&gt;&lt;/div&gt;" style="edgeLabel;html=1;align=center;verticalAlign=middle;resizable=0;points=[];" vertex="1" connectable="0" parent="30">
                    <mxGeometry x="0.4977" relative="1" as="geometry">
                        <mxPoint x="20" y="-20" as="offset"/>
                    </mxGeometry>
                </mxCell>
                <mxCell id="31" value="" style="endArrow=classic;html=1;rounded=0;curved=0;jumpStyle=arc;" edge="1" parent="1">
                    <mxGeometry width="50" height="50" relative="1" as="geometry">
                        <mxPoint x="190" y="690" as="sourcePoint"/>
                        <mxPoint x="240" y="640" as="targetPoint"/>
                    </mxGeometry>
                </mxCell>
                <mxCell id="32" value="" style="endArrow=classic;html=1;rounded=0;curved=0;jumpStyle=arc;entryX=0.997;entryY=0.57;entryDx=0;entryDy=0;entryPerimeter=0;exitX=0.005;exitY=0.577;exitDx=0;exitDy=0;exitPerimeter=0;" edge="1" parent="1" source="5" target="2">
                    <mxGeometry width="50" height="50" relative="1" as="geometry">
                        <mxPoint x="410" y="420" as="sourcePoint"/>
                        <mxPoint x="460" y="370" as="targetPoint"/>
                    </mxGeometry>
                </mxCell>
                <mxCell id="49" value="Info reservasi" style="edgeLabel;html=1;align=center;verticalAlign=middle;resizable=0;points=[];" vertex="1" connectable="0" parent="32">
                    <mxGeometry x="0.1931" relative="1" as="geometry">
                        <mxPoint x="11" as="offset"/>
                    </mxGeometry>
                </mxCell>
                <mxCell id="33" value="" style="endArrow=classic;html=1;rounded=0;curved=0;jumpStyle=arc;exitX=0.5;exitY=0;exitDx=0;exitDy=0;entryX=0.974;entryY=0.282;entryDx=0;entryDy=0;entryPerimeter=0;" edge="1" parent="1" source="53" target="4">
                    <mxGeometry width="50" height="50" relative="1" as="geometry">
                        <mxPoint x="620" y="420" as="sourcePoint"/>
                        <mxPoint x="670" y="370" as="targetPoint"/>
                        <Array as="points">
                            <mxPoint x="750" y="170"/>
                        </Array>
                    </mxGeometry>
                </mxCell>
                <mxCell id="56" value="Data reservasi" style="edgeLabel;html=1;align=center;verticalAlign=middle;resizable=0;points=[];" vertex="1" connectable="0" parent="33">
                    <mxGeometry x="0.3634" y="-1" relative="1" as="geometry">
                        <mxPoint as="offset"/>
                    </mxGeometry>
                </mxCell>
                <mxCell id="34" value="" style="endArrow=classic;html=1;rounded=0;curved=0;jumpStyle=arc;" edge="1" parent="1">
                    <mxGeometry width="50" height="50" relative="1" as="geometry">
                        <mxPoint x="170" y="670" as="sourcePoint"/>
                        <mxPoint x="220" y="620" as="targetPoint"/>
                    </mxGeometry>
                </mxCell>
                <mxCell id="35" value="" style="endArrow=classic;html=1;rounded=0;curved=0;jumpStyle=arc;entryX=0.25;entryY=0;entryDx=0;entryDy=0;exitX=1;exitY=0.5;exitDx=0;exitDy=0;" edge="1" parent="1" source="4" target="53">
                    <mxGeometry width="50" height="50" relative="1" as="geometry">
                        <mxPoint x="610" y="370" as="sourcePoint"/>
                        <mxPoint x="660" y="320" as="targetPoint"/>
                        <Array as="points">
                            <mxPoint x="725" y="190"/>
                        </Array>
                    </mxGeometry>
                </mxCell>
                <mxCell id="57" value="&lt;span style=&quot;color: rgb(0, 0, 0);&quot;&gt;Data reservasi&lt;/span&gt;" style="edgeLabel;html=1;align=center;verticalAlign=middle;resizable=0;points=[];" vertex="1" connectable="0" parent="35">
                    <mxGeometry x="-0.2558" y="-2" relative="1" as="geometry">
                        <mxPoint y="-2" as="offset"/>
                    </mxGeometry>
                </mxCell>
                <mxCell id="36" value="" style="endArrow=classic;html=1;rounded=0;curved=0;jumpStyle=arc;" edge="1" parent="1">
                    <mxGeometry width="50" height="50" relative="1" as="geometry">
                        <mxPoint x="190" y="690" as="sourcePoint"/>
                        <mxPoint x="240" y="640" as="targetPoint"/>
                    </mxGeometry>
                </mxCell>
                <mxCell id="37" value="" style="endArrow=classic;html=1;rounded=0;curved=0;jumpStyle=arc;" edge="1" parent="1">
                    <mxGeometry width="50" height="50" relative="1" as="geometry">
                        <mxPoint x="200" y="700" as="sourcePoint"/>
                        <mxPoint x="250" y="650" as="targetPoint"/>
                    </mxGeometry>
                </mxCell>
                <mxCell id="38" value="" style="endArrow=classic;html=1;rounded=0;curved=0;jumpStyle=arc;exitX=1;exitY=0.5;exitDx=0;exitDy=0;entryX=0;entryY=0.25;entryDx=0;entryDy=0;" edge="1" parent="1" source="5" target="53">
                    <mxGeometry width="50" height="50" relative="1" as="geometry">
                        <mxPoint x="600" y="370" as="sourcePoint"/>
                        <mxPoint x="650" y="320" as="targetPoint"/>
                        <Array as="points">
                            <mxPoint x="610" y="330"/>
                            <mxPoint x="610" y="258"/>
                        </Array>
                    </mxGeometry>
                </mxCell>
                <mxCell id="62" value="Data reservasi" style="edgeLabel;html=1;align=center;verticalAlign=middle;resizable=0;points=[];" vertex="1" connectable="0" parent="38">
                    <mxGeometry x="0.2044" relative="1" as="geometry">
                        <mxPoint x="22" as="offset"/>
                    </mxGeometry>
                </mxCell>
                <mxCell id="39" value="" style="endArrow=classic;html=1;rounded=0;curved=0;jumpStyle=arc;entryX=0.999;entryY=0.316;entryDx=0;entryDy=0;exitX=0.5;exitY=0;exitDx=0;exitDy=0;entryPerimeter=0;" edge="1" parent="1" source="4" target="55">
                    <mxGeometry width="50" height="50" relative="1" as="geometry">
                        <mxPoint x="700" y="545" as="sourcePoint"/>
                        <mxPoint x="750" y="495" as="targetPoint"/>
                        <Array as="points">
                            <mxPoint x="540" y="120"/>
                            <mxPoint x="840" y="120"/>
                            <mxPoint x="840" y="464"/>
                        </Array>
                    </mxGeometry>
                </mxCell>
                <mxCell id="61" value="&lt;span style=&quot;color: rgb(0, 0, 0);&quot;&gt;Data&amp;nbsp;&lt;/span&gt;&lt;i style=&quot;color: rgb(63, 63, 63); scrollbar-color: rgb(226, 226, 226) rgb(251, 251, 251);&quot;&gt;reservation room&lt;/i&gt;" style="edgeLabel;html=1;align=center;verticalAlign=middle;resizable=0;points=[];" vertex="1" connectable="0" parent="39">
                    <mxGeometry x="-0.5018" y="2" relative="1" as="geometry">
                        <mxPoint x="12" as="offset"/>
                    </mxGeometry>
                </mxCell>
                <mxCell id="40" value="" style="endArrow=classic;html=1;rounded=0;curved=0;jumpStyle=arc;exitX=1;exitY=0;exitDx=0;exitDy=0;entryX=1;entryY=0.25;entryDx=0;entryDy=0;" edge="1" parent="1" source="4" target="54">
                    <mxGeometry width="50" height="50" relative="1" as="geometry">
                        <mxPoint x="610" y="160" as="sourcePoint"/>
                        <mxPoint x="660" y="110" as="targetPoint"/>
                        <Array as="points">
                            <mxPoint x="820" y="155"/>
                            <mxPoint x="820" y="348"/>
                        </Array>
                    </mxGeometry>
                </mxCell>
                <mxCell id="59" value="&lt;span style=&quot;color: rgb(0, 0, 0);&quot;&gt;Data&amp;nbsp;&lt;/span&gt;&lt;i style=&quot;color: rgb(63, 63, 63); scrollbar-color: rgb(226, 226, 226) rgb(251, 251, 251);&quot;&gt;reservation customer&lt;/i&gt;" style="edgeLabel;html=1;align=center;verticalAlign=middle;resizable=0;points=[];" vertex="1" connectable="0" parent="40">
                    <mxGeometry x="-0.3768" y="-1" relative="1" as="geometry">
                        <mxPoint as="offset"/>
                    </mxGeometry>
                </mxCell>
                <mxCell id="41" value="" style="endArrow=classic;html=1;rounded=0;curved=0;jumpStyle=arc;exitX=0.5;exitY=1;exitDx=0;exitDy=0;entryX=0.981;entryY=0.31;entryDx=0;entryDy=0;entryPerimeter=0;" edge="1" parent="1" source="55" target="50">
                    <mxGeometry width="50" height="50" relative="1" as="geometry">
                        <mxPoint x="590" y="730" as="sourcePoint"/>
                        <mxPoint x="640" y="680" as="targetPoint"/>
                        <Array as="points">
                            <mxPoint x="750" y="581"/>
                        </Array>
                    </mxGeometry>
                </mxCell>
                <mxCell id="67" value="&lt;span style=&quot;color: rgb(0, 0, 0);&quot;&gt;Data&lt;/span&gt;&lt;div style=&quot;color: rgb(63, 63, 63); scrollbar-color: rgb(226, 226, 226) rgb(251, 251, 251);&quot;&gt;reservasi kamar&lt;/div&gt;" style="edgeLabel;html=1;align=center;verticalAlign=middle;resizable=0;points=[];" vertex="1" connectable="0" parent="41">
                    <mxGeometry x="0.3451" y="1" relative="1" as="geometry">
                        <mxPoint y="-12" as="offset"/>
                    </mxGeometry>
                </mxCell>
                <mxCell id="42" value="" style="endArrow=classic;html=1;rounded=0;curved=0;jumpStyle=arc;exitX=1.005;exitY=0.83;exitDx=0;exitDy=0;entryX=0.381;entryY=0.001;entryDx=0;entryDy=0;entryPerimeter=0;exitPerimeter=0;" edge="1" parent="1" source="55" target="4">
                    <mxGeometry width="50" height="50" relative="1" as="geometry">
                        <mxPoint x="730" y="570" as="sourcePoint"/>
                        <mxPoint x="780" y="520" as="targetPoint"/>
                        <Array as="points">
                            <mxPoint x="850" y="480"/>
                            <mxPoint x="850" y="100"/>
                            <mxPoint x="528" y="100"/>
                        </Array>
                    </mxGeometry>
                </mxCell>
                <mxCell id="60" value="Data &lt;i&gt;reservation room&lt;/i&gt;" style="edgeLabel;html=1;align=center;verticalAlign=middle;resizable=0;points=[];" vertex="1" connectable="0" parent="42">
                    <mxGeometry x="0.559" relative="1" as="geometry">
                        <mxPoint x="45" as="offset"/>
                    </mxGeometry>
                </mxCell>
                <mxCell id="47" value="Pelanggan" style="html=1;dashed=0;whiteSpace=wrap;" vertex="1" parent="1">
                    <mxGeometry x="260" y="445" width="100" height="50" as="geometry"/>
                </mxCell>
                <mxCell id="50" value="P.6.5&lt;div&gt;Notifikasi Email&lt;br&gt;&lt;div&gt;Reservasi&lt;/div&gt;&lt;/div&gt;" style="shape=ellipse;html=1;dashed=0;whiteSpace=wrap;aspect=fixed;perimeter=ellipsePerimeter;" vertex="1" parent="1">
                    <mxGeometry x="490" y="550" width="100" height="100" as="geometry"/>
                </mxCell>
                <mxCell id="53" value="Reservations" style="html=1;dashed=0;whiteSpace=wrap;shape=partialRectangle;right=0;left=0;" vertex="1" parent="1">
                    <mxGeometry x="700" y="250" width="100" height="30" as="geometry"/>
                </mxCell>
                <mxCell id="54" value="Reservation&lt;div&gt;Customers&lt;/div&gt;" style="html=1;dashed=0;whiteSpace=wrap;shape=partialRectangle;right=0;left=0;" vertex="1" parent="1">
                    <mxGeometry x="700" y="340" width="100" height="30" as="geometry"/>
                </mxCell>
                <mxCell id="55" value="Reservation&lt;div&gt;Rooms&lt;/div&gt;" style="html=1;dashed=0;whiteSpace=wrap;shape=partialRectangle;right=0;left=0;" vertex="1" parent="1">
                    <mxGeometry x="700" y="455" width="100" height="30" as="geometry"/>
                </mxCell>
            </root>
        </mxGraphModel>
    </diagram>
</mxfile>